<?xml version="1.0" encoding="UTF-8" standalone="no"?>
<!-- Created with Inkscape (http://www.inkscape.org/) -->

<svg
   width="600"
   height="570"
   viewBox="0 0 158.75 150.8125"
   version="1.1"
   id="svg1"
   xml:space="preserve"
   inkscape:version="1.4 (86a8ad7, 2024-10-11)"
   sodipodi:docname="take.svg"
   inkscape:export-filename="take.png"
   inkscape:export-xdpi="96"
   inkscape:export-ydpi="96"
   xmlns:inkscape="http://www.inkscape.org/namespaces/inkscape"
   xmlns:sodipodi="http://sodipodi.sourceforge.net/DTD/sodipodi-0.dtd"
   xmlns:xlink="http://www.w3.org/1999/xlink"
   xmlns="http://www.w3.org/2000/svg"
   xmlns:svg="http://www.w3.org/2000/svg"><sodipodi:namedview
     id="namedview1"
     pagecolor="#ffffff"
     bordercolor="#000000"
     borderopacity="0.25"
     inkscape:showpageshadow="2"
     inkscape:pageopacity="0.0"
     inkscape:pagecheckerboard="0"
     inkscape:deskcolor="#d1d1d1"
     inkscape:document-units="mm"
     inkscape:zoom="2.0034087"
     inkscape:cx="248.07718"
     inkscape:cy="331.93426"
     inkscape:window-width="3840"
     inkscape:window-height="2054"
     inkscape:window-x="-11"
     inkscape:window-y="-11"
     inkscape:window-maximized="1"
     inkscape:current-layer="svg1"
     showguides="false" /><defs
     id="defs1"><linearGradient
       id="linearGradient37"
       inkscape:collect="always"><stop
         style="stop-color:#fec387;stop-opacity:1;"
         offset="0"
         id="stop37" /><stop
         style="stop-color:#ffda74;stop-opacity:1;"
         offset="1"
         id="stop38" /></linearGradient><linearGradient
       inkscape:collect="always"
       xlink:href="#linearGradient37"
       id="linearGradient38"
       x1="145.47298"
       y1="139.96103"
       x2="181.11275"
       y2="118.20228"
       gradientUnits="userSpaceOnUse"
       gradientTransform="translate(-22.754175,-21.695841)" /><linearGradient
       inkscape:collect="always"
       xlink:href="#linearGradient37"
       id="linearGradient39"
       gradientUnits="userSpaceOnUse"
       x1="144.70256"
       y1="140.87154"
       x2="163.01936"
       y2="128.24118"
       gradientTransform="translate(-22.754175,-26.987511)" /></defs><rect
     style="fill:#a8b8c3;fill-opacity:1;stroke:none;stroke-width:0.79375;stroke-linecap:round;stroke-linejoin:round;stroke-dasharray:none;stroke-opacity:1"
     id="rect43"
     width="158.7122"
     height="150.8125"
     x="0"
     y="0" /><path
     style="fill:#d3fcfe;fill-opacity:1;stroke:#000000;stroke-width:0.66145833;stroke-linecap:round;stroke-linejoin:round;stroke-dasharray:none;stroke-opacity:1"
     d="M 106.46762,75.737432 C 107.30246,63.6696 117.7034,40.903453 130.41091,34.41434 c 17.94803,18.019422 24.19399,5.878382 40.62131,19.790508 -13.49203,10.208108 -21.32941,13.309937 -27.86451,33.329593 -8.58142,-4.318927 -17.26223,-12.398769 -36.70009,-11.797009 z"
     id="path41"
     sodipodi:nodetypes="ccccc" /><path
     style="fill:#ffda74;fill-opacity:1;stroke:#000000;stroke-width:0.66145833;stroke-linecap:round;stroke-linejoin:round;stroke-dasharray:none;stroke-opacity:1"
     d="m 131.76358,60.251462 12.48029,11.819959 -1.38669,8.84845 c 5.19462,7.558005 13.4928,6.469231 21.72495,17.630778 -14.32843,-0.491297 -22.33285,16.377451 -41.99717,21.956061 l -19.27151,-10.23874 0.91425,-19.112999 c 4.23231,-15.665795 13.26941,-24.556532 27.53588,-30.903509 z"
     id="path35"
     sodipodi:nodetypes="cccccccc" /><path
     style="fill:#a42504;fill-opacity:1;stroke:#000000;stroke-width:0.66145833;stroke-linecap:round;stroke-linejoin:round;stroke-dasharray:none;stroke-opacity:1"
     d="m 89.80908,142.78499 c -5.28729,-8.679 -15.439244,-22.5135 -23.930399,-27.74131 l -6.033678,5.9062 3.548637,23.71983 c 5.553842,6.65178 12.13553,11.52819 19.050552,15.82879 11.988051,4.21984 11.305664,-5.0166 7.364888,-17.71351 z"
     id="path25"
     sodipodi:nodetypes="cccccc" /><path
     id="path7"
     style="fill:#a42504;fill-opacity:1;stroke:#000000;stroke-width:0.661458;stroke-linecap:round;stroke-linejoin:round;stroke-dasharray:none;stroke-opacity:1"
     d="m 35.268996,98.120262 c -6.443759,1.857001 -2.485045,7.838128 -0.573675,11.719358 9.479883,19.24985 -1.966021,39.31045 -6.114682,46.81733 l -29.08159591,0.069 -0.04824,-39.26117 C 3.8166266,111.04698 13.886474,107.08264 20.418554,105.96781 L 35.269,98.120242"
     sodipodi:nodetypes="csccccc" /><path
     style="fill:none;stroke:#000000;stroke-width:0.66145833;stroke-linecap:round;stroke-linejoin:round;stroke-dasharray:none;stroke-opacity:1"
     d="m 10.045505,156.1525 c 4.56678,-3.6682 14.735504,-40.10473 -6.1426954,-43.23068"
     id="path8"
     sodipodi:nodetypes="cc" /><path
     style="fill:#fec387;fill-opacity:1;stroke:#000000;stroke-width:0.66145833;stroke-linecap:round;stroke-linejoin:round;stroke-dasharray:none;stroke-opacity:1"
     d="m 85.711414,75.583126 c 0.318427,-1.475962 2.549625,-6.224912 -2.499568,-11.22765 -5.41145,5.059367 -6.224379,9.777759 -0.260787,11.047551"
     id="path19"
     sodipodi:nodetypes="ccc" /><path
     style="fill:#f9adfd;fill-opacity:1;stroke:#000000;stroke-width:0.66145833;stroke-linecap:round;stroke-linejoin:round;stroke-dasharray:none;stroke-opacity:1"
     d="m 53.385722,88.565686 c 4.388328,1.462861 12.89274,5.873387 23.146935,3.612979 0.451771,-4.852053 -14.464785,-18.338336 -22.619207,-9.137786 -0.264767,1.379931 -0.61952,4.522743 -0.527728,5.524807 z"
     id="path22"
     sodipodi:nodetypes="cccc" /><path
     id="path27"
     style="fill:#fec387;fill-opacity:1;stroke:#000000;stroke-width:0.66145833;stroke-linecap:round;stroke-linejoin:round;stroke-dasharray:none;stroke-opacity:1"
     d="m 118.09469,112.68177 c 9.60929,-4.63189 13.75235,-5.53014 21.2297,-14.296188 3.53426,-4.143329 -1.11999,-8.573322 -4.32517,-4.061029 -3.24162,4.563596 -9.16665,9.645087 -17.36676,12.711367 12.20579,-4.71464 13.16644,-9.836222 13.66889,-13.668851 0.78202,-5.965187 -4.65363,-6.428934 -4.9525,-2.905442 -0.35062,4.133666 -4.39548,9.483856 -8.1551,10.895433 -3.75615,1.34534 -9.05631,-0.7955 -13.80096,4.29217 -0.23112,0.099 1.27425,-1.05463 1.27425,-1.05463 0.47994,-2.07273 1.13366,-5.792971 1.14736,-9.014883 0.0286,-6.699281 -4.76812,-4.618153 -4.75332,0.12293 0.0148,4.753703 -2.157457,8.677273 -1.96688,13.481343 0.3612,9.10486 -1.992608,18.22103 -4.056686,27.33154 -4.084326,12.67062 8.303816,17.78644 11.760326,9.34272 m 0,0 c 2.2676,-8.36383 2.69069,-15.5715 3.97475,-21.22599 8.24354,-1.52117 14.5001,-6.11312 20.36548,-11.30961 l -4.30347,-5.26321 c 0,0 -4.42423,2.31117 -9.73991,4.62233"
     sodipodi:nodetypes="ccccsscsscccccscccc" /><path
     style="fill:#a42504;fill-opacity:1;stroke:#000000;stroke-width:0.66145833;stroke-linecap:round;stroke-linejoin:round;stroke-dasharray:none;stroke-opacity:1"
     d="m 103.4543,149.05444 c 5.44357,-2.09384 6.16795,-6.55621 5.20405,-6.63825 6.64818,3.98977 -0.92747,20.11746 -11.596422,16.30878 z"
     id="path29"
     sodipodi:nodetypes="cccc" /><path
     style="fill:#a42504;fill-opacity:1;stroke:#000000;stroke-width:0.66145833;stroke-linecap:round;stroke-linejoin:round;stroke-dasharray:none;stroke-opacity:1"
     d="m 96.488261,133.97497 c -7.897125,4.99369 -12.223561,23.38172 -4.425476,25.2827 5.34406,1.30275 7.945805,-3.24682 14.792585,-6.63824 -4.58811,-3.93325 -13.573701,-15.60145 -10.367109,-18.64446 z"
     id="path28"
     sodipodi:nodetypes="cscc" /><path
     style="fill:#a42504;fill-opacity:1;stroke:#000000;stroke-width:0.66145833;stroke-linecap:round;stroke-linejoin:round;stroke-dasharray:none;stroke-opacity:1"
     d="m 66.118828,156.75663 c -1.92165,-9.83221 -0.24989,-21.20265 0.0877,-31.42777 -0.39066,0.0647 -4.50384,-2.66627 -4.67136,-3.23716 3.7437,-1.158 4.72135,-1.95523 5.286007,-3.27815 0.94405,-2.21178 -6.342264,-14.08249 -9.957364,-14.75166 l -6.450684,-0.0614 0.0467,52.76262 z"
     id="path24"
     sodipodi:nodetypes="cscccccc" /><path
     style="fill:#ffffff;fill-opacity:1;stroke:#000000;stroke-width:0.661458;stroke-linecap:round;stroke-linejoin:round;stroke-dasharray:none;stroke-opacity:1"
     d="m 33.066805,105.51798 c 10.509677,12.64878 21.826326,14.36513 22.949405,5.36964 4.196477,10.02063 6.58614,46.04013 6.210113,45.92216 l -33.750726,-0.091 c 9.15352,-15.07839 13.485993,-34.20917 4.591208,-51.2008 z"
     id="path30"
     sodipodi:nodetypes="ccccc" /><path
     id="path10"
     style="fill:#fec387;fill-opacity:1;stroke:#000000;stroke-width:0.661458;stroke-linecap:round;stroke-linejoin:round;stroke-dasharray:none;stroke-opacity:1"
     d="M 37.166093,68.416364 C 37.833994,79.11949 37.52919,89.9152 34.963995,100.92618 l -2.770343,-0.49862 c -1.143005,1.27651 -0.505469,2.21836 -0.06921,3.85972 14.520204,21.88752 30.711404,9.75236 20.880892,2.57895 2.121791,0.48516 3.406561,-0.51098 3.689897,-3.27435"
     sodipodi:nodetypes="cccccc" /><path
     style="fill:#a42504;fill-opacity:1;stroke:#000000;stroke-width:0.661458;stroke-linecap:round;stroke-linejoin:round;stroke-dasharray:none;stroke-opacity:1"
     d="M 36.597435,91.329461 C 17.107341,94.88762 20.399159,104.91469 21.461652,113.50132 c 0.533206,4.30915 0.465188,5.65989 0.405648,7.9971 -0.06727,2.64066 0.149456,4.35 3.7088,2.5498 4.972783,-2.51507 8.592159,-4.02565 11.821792,-5.15755 -1.234068,-13.2627 -10.297565,-17.84841 -1.848256,-20.834728 z"
     id="path6"
     sodipodi:nodetypes="csssccc" /><path
     style="fill:#ffffff;fill-opacity:1;stroke:#000000;stroke-width:0.66145833;stroke-linecap:round;stroke-linejoin:round;stroke-dasharray:none;stroke-opacity:1"
     d="m 58.268662,77.519166 c 0.683771,0.911697 3.54508,0.670819 4.193113,-0.462233 0.629058,1.61546 4.025788,1.48448 4.589315,0.09905 0.132922,1.55613 3.26292,1.36475 4.160096,0.231119 0.368841,1.313481 2.78565,1.567908 3.565798,0.330165 0.400811,1.444053 3.036072,1.72918 4.096396,0.737696 0.44899,1.280364 2.793435,1.436951 2.943445,0.520937 l 0.18379,-3.504476 -23.813199,-0.653697 z"
     id="path33"
     sodipodi:nodetypes="cccccccccc" /><path
     style="fill:#ffffff;fill-opacity:1;stroke:#000000;stroke-width:0.66145833;stroke-linecap:round;stroke-linejoin:round;stroke-dasharray:none;stroke-opacity:1"
     d="m 53.316167,88.711746 c 0.203743,-0.940294 4.969914,-2.551465 4.012694,2.319455 1.606602,-3.904056 5.141908,-1.632488 4.415246,1.511434 1.285178,-4.783403 5.081488,-2.277948 4.481567,1.121581 0.209647,-2.804632 4.338703,-3.564699 4.226129,0.36319 -0.164829,-3.247912 3.100844,-3.774869 3.598815,-0.16509 -0.141424,-3.083772 4.067718,-3.254592 4.325175,-0.16508 l -0.033,2.377188 c 0,0 -18.419202,-0.638647 -25.984091,-1.221614 0.186083,-1.493471 0.957485,-6.141064 0.957485,-6.141064 z"
     id="path34"
     sodipodi:nodetypes="ccccccccccc" /><path
     id="path12"
     style="fill:#fec387;fill-opacity:1;stroke:#000000;stroke-width:0.66145833;stroke-linecap:round;stroke-linejoin:round;stroke-dasharray:none;stroke-opacity:1"
     d="m 48.258647,97.300738 c 7.705417,9.646622 24.459715,10.384862 30.527726,7.047992 4.386533,-2.41222 1.205951,-9.692947 -6.146521,-6.228468 1.29194,-0.578327 2.09554,-1.019244 3.7289,-1.147344 6.388457,0.17535 6.202577,-4.432343 2.499578,-3.155192 -2.894558,0.998314 -26.631696,2.575925 -25.528556,-6.515284 0.43815,-3.610879 0.12768,-10.548298 9.916394,-11.350525 3.508977,-0.287576 15.261955,-0.02956 20.201538,3.56498 0.899964,0.654907 2.773135,2.577835 3.032272,-0.655627 0.22966,-2.865613 -2.498825,-5.388901 -4.056686,-8.564155 0,0 2.348705,-5.528604 2.438895,-5.494947 1.765671,0.658916 4.769953,-0.367264 3.665349,-3.198442 -2.012658,-10.986342 1.431341,-22.500752 -7.424078,-32.824888 l -45.034985,-14.894935 1.07393,54.256785 c 0.36994,7.67021 0.36037,15.293068 -0.44758,23.263193"
     sodipodi:nodetypes="csssssccscsccccc" /><path
     id="path3"
     style="fill:#e96a03;fill-opacity:1;stroke:#000000;stroke-width:0.66145833;stroke-linecap:round;stroke-linejoin:round;stroke-dasharray:none;stroke-opacity:1"
     d="m 37.977393,20.375834 c 10.301157,1.293225 21.035433,2.315134 31.640688,5.737048 13.412318,4.864106 31.405669,4.243022 39.927399,-6.548345 -3.63032,0.5319 -10.400464,1.259431 -14.37156,-1.6226 4.803913,-4.168032 6.27843,-6.368671 7.76527,-8.5765974 -2.994257,0.3846777 -5.359785,1.1717274 -12.053546,-0.8112997 l -0.17385,-5.273443 C 88.507016,4.1325916 86.686228,4.972346 83.352196,5.192945 l 0.0579,-5.38934486 C 78.492303,1.7398058 74.440616,3.8203646 65.097943,5.019095 L 64.808193,-0.71794953 52.638698,3.1646959 50.030949,-2.2825976 C 42.107923,5.075302 39.213519,3.8665506 32.645956,8.3222412 17.107134,18.864388 17.525268,34.09457 25.758819,51.758689 c 0,0 18.550744,3.663165 18.419222,3.039431 -0.09454,-0.448364 -1.564795,-12.053303 -1.506699,-12.169494 5.867108,-0.535379 2.627599,-8.443233 1.564648,-11.821795 -0.408925,-1.299756 -2.541141,-4.142323 -3.187248,-9.967397"
     sodipodi:nodetypes="cccccccccccccscscsc" /><path
     style="fill:#fec387;fill-opacity:1;stroke:#000000;stroke-width:0.66145833;stroke-linecap:round;stroke-linejoin:round;stroke-dasharray:none;stroke-opacity:1"
     d="m 40.179493,55.78327 c -6.364965,-13.939711 -17.033173,-6.759126 -14.719294,2.5498 2.552676,10.269625 9.894885,11.742426 14.545445,8.750445"
     id="path1"
     sodipodi:nodetypes="csc" /><path
     style="fill:#fec387;fill-opacity:1;stroke:#000000;stroke-width:0.66145833;stroke-linecap:round;stroke-linejoin:round;stroke-dasharray:none;stroke-opacity:1"
     d="m 30.105465,57.246947 c -0.716179,-2.810088 3.282673,-5.308043 5.645846,1.617816 -6.105888,-4.057882 -3.605466,8.062306 2.509265,3.697864"
     id="path31"
     sodipodi:nodetypes="ccc" /><path
     style="fill:none;stroke:#000000;stroke-width:0.661458;stroke-linecap:round;stroke-linejoin:round;stroke-dasharray:none;stroke-opacity:1"
     d="m 56.216601,41.063413 c 5.028745,-2.2418 16.761822,-2.867017 18.956971,1.440786 4.440459,8.714043 -19.121474,11.952905 -19.621049,2.919988"
     id="path17"
     sodipodi:nodetypes="csc" /><path
     style="fill:none;stroke:#000000;stroke-width:0.66145833;stroke-linecap:round;stroke-linejoin:round;stroke-dasharray:none;stroke-opacity:1"
     d="m 57.724295,58.700676 c -3.080904,6.436116 15.58446,7.801707 13.112583,1.065398"
     id="path18"
     sodipodi:nodetypes="cc" /><path
     style="fill:#fec387;fill-opacity:1;stroke:#000000;stroke-width:0.66145833;stroke-linecap:round;stroke-linejoin:round;stroke-dasharray:none;stroke-opacity:1"
     d="m 81.736685,48.538425 c -3.893129,-1.511777 -3.236622,-5.72454 0.778557,-6.1875 2.063988,-0.237983 5.507347,-0.0047 6.973878,0.814012 2.167478,1.210002 1.101074,3.719339 -1.237151,3.980274"
     id="path20"
     sodipodi:nodetypes="cssc" /><path
     style="fill:#d3fcfe;fill-opacity:1;stroke:#000000;stroke-width:0.66145833;stroke-linecap:round;stroke-linejoin:round;stroke-dasharray:none;stroke-opacity:1"
     d="M 79.07321,58.167978 C 74.80693,50.677541 85.302364,43.33368 92.718412,49.071123 99.217486,54.099146 91.824368,62.682635 84.35919,62.224682"
     id="path14"
     sodipodi:nodetypes="csc" /><path
     style="fill:#fec387;fill-opacity:1;stroke:#000000;stroke-width:0.66145833;stroke-linecap:round;stroke-linejoin:round;stroke-dasharray:none;stroke-opacity:1"
     d="m 76.61461,56.897695 c 4.552328,2.472344 8.986914,4.958816 8.195317,8.072434 5.27939,0.246129 2.775305,2.85601 0.696607,4.343543 -3.429742,2.454348 -14.624177,0.384026 -12.866676,-2.212749"
     id="path13"
     sodipodi:nodetypes="ccsc" /><path
     style="fill:#d3fcfe;fill-opacity:1;stroke:#000000;stroke-width:0.66145833;stroke-linecap:round;stroke-linejoin:round;stroke-dasharray:none;stroke-opacity:1"
     d="m 62.067837,46.89935 c 9.354387,-2.383962 13.439782,2.569797 12.00621,8.932947 -1.07354,4.765086 -10.463993,7.636483 -15.243379,3.810844 -3.998759,-3.200789 -3.809756,-10.947885 3.237169,-12.743791 z"
     id="path15"
     sodipodi:nodetypes="ssss" /><path
     style="fill:none;stroke:#000000;stroke-width:0.661458;stroke-linecap:round;stroke-linejoin:round;stroke-dasharray:none;stroke-opacity:1"
     d="m 36.30373,50.013588 c 6.972564,1.905808 12.714632,3.276045 19.833985,3.957121"
     id="path16"
     sodipodi:nodetypes="cc" /><path
     style="fill:#d3fcfe;fill-opacity:1;stroke:#000000;stroke-width:0.66145833;stroke-linecap:round;stroke-linejoin:round;stroke-dasharray:none;stroke-opacity:1"
     d="m 74.413801,53.813216 c 1.005251,-0.344915 3.620935,-0.02211 3.499765,0.09905"
     id="path32"
     sodipodi:nodetypes="cc" /><path
     style="fill:none;fill-opacity:1;stroke:#000000;stroke-width:0.66145833;stroke-linecap:round;stroke-linejoin:round;stroke-dasharray:none;stroke-opacity:1"
     d="m 142.85911,80.964628 c -2.75405,-3.884627 -6.47053,-7.871694 -6.47053,-7.871694 l -5.28487,3.340702 -9.48455,-7.779332"
     id="path36"
     sodipodi:nodetypes="cccc" /><path
     style="fill:url(#linearGradient38);stroke:none;stroke-width:0.66145833;stroke-linecap:round;stroke-linejoin:round;stroke-dasharray:none;stroke-opacity:1"
     d="m 158.10942,99.132776 c -12.28479,4.496924 -18.13968,15.753134 -35.84824,21.081694 -1.13755,-1.80923 -0.70473,-4.0503 -0.70473,-4.0503 19.11378,-7.10607 19.87606,-17.840418 31.90706,-20.474953"
     id="path37"
     sodipodi:nodetypes="cccc" /><path
     style="fill:none;stroke:#000000;stroke-width:0.66145833;stroke-linecap:round;stroke-linejoin:round;stroke-dasharray:none;stroke-opacity:1"
     d="m 121.55645,116.16417 c 19.11378,-7.10607 19.87606,-17.840418 31.90706,-20.474953"
     id="path38"
     sodipodi:nodetypes="cc" /><path
     style="fill:url(#linearGradient39);stroke:none;stroke-width:0.66145833;stroke-linecap:round;stroke-linejoin:round;stroke-dasharray:none;stroke-opacity:1"
     d="m 141.56857,102.37417 c -3.1914,3.13117 -9.86961,9.68456 -19.09693,13.04609 -1.13755,-1.80923 -1.07862,-3.76566 -1.07862,-3.76566 5.9348,-2.42513 12.98891,-6.69258 17.5491,-12.292094"
     id="path39"
     sodipodi:nodetypes="cccc" /><path
     style="fill:none;fill-opacity:1;stroke:none;stroke-width:0.66145833;stroke-linecap:round;stroke-linejoin:round;stroke-dasharray:none;stroke-opacity:1"
     d="M 120.9338,89.462993 C 120.37349,88.996066 100.1089,79.003855 100.1089,79.003855 l 27.36186,-45.385193 36.60698,29.136173 z"
     id="path40" /><path
     style="fill:none;fill-opacity:1;stroke:#000000;stroke-width:0.66145833;stroke-linecap:round;stroke-linejoin:round;stroke-dasharray:none;stroke-opacity:1"
     d="m 127.3292,41.604998 c 12.71846,12.416312 20.3652,8.399782 31.09602,15.868331"
     id="path42"
     sodipodi:nodetypes="cc" /><path
     style="fill:none;fill-opacity:1;stroke:#000000;stroke-width:0.66145833;stroke-linecap:round;stroke-linejoin:round;stroke-dasharray:none;stroke-opacity:1"
     d="m 123.59379,47.301493 c 7.86243,7.093357 12.801,5.971768 19.32949,10.171836"
     id="path43"
     sodipodi:nodetypes="cc" /><text
     xml:space="preserve"
     style="font-style:normal;font-variant:normal;font-weight:normal;font-stretch:normal;font-size:25.0321px;font-family:'Trebuchet MS';-inkscape-font-specification:'Trebuchet MS';text-align:center;writing-mode:lr-tb;direction:ltr;text-anchor:middle;fill:#ffffff;fill-opacity:1;stroke:#000000;stroke-width:0.52916667;stroke-linecap:round;stroke-linejoin:round;stroke-dasharray:none;stroke-opacity:1"
     x="78.86158"
     y="145.7142"
     id="text43"
     transform="scale(1.0084641,0.99160694)"><tspan
       sodipodi:role="line"
       id="tspan43"
       style="font-style:normal;font-variant:normal;font-weight:normal;font-stretch:condensed;font-family:Impact;-inkscape-font-specification:'Impact Condensed';fill:#ffffff;fill-opacity:1;stroke-width:0.52916667;stroke-dasharray:none"
       x="78.86158"
       y="145.7142">TAKE MY FILE</tspan></text><text
     xml:space="preserve"
     style="font-style:normal;font-variant:normal;font-weight:normal;font-stretch:normal;font-size:25.0321px;font-family:'Trebuchet MS';-inkscape-font-specification:'Trebuchet MS';text-align:center;writing-mode:lr-tb;direction:ltr;text-anchor:middle;fill:#ffffff;fill-opacity:1;stroke:#000000;stroke-width:0.52916667;stroke-linecap:round;stroke-linejoin:round;stroke-dasharray:none;stroke-opacity:1"
     x="78.678246"
     y="25.643944"
     id="text44"
     transform="scale(1.0084641,0.99160694)"><tspan
       sodipodi:role="line"
       id="tspan44"
       style="font-style:normal;font-variant:normal;font-weight:normal;font-stretch:condensed;font-family:Impact;-inkscape-font-specification:'Impact Condensed';fill:#ffffff;fill-opacity:1;stroke-width:0.52916667;stroke-dasharray:none"
       x="78.678246"
       y="25.643944">I'D LIKE YOU</tspan></text></svg>
